<svg width="20" height="14" viewBox="0 0 20 14" fill="none" xmlns="http://www.w3.org/2000/svg">
<path d="M19.9178 5.89136C20.0382 4.68638 19.7255 3.47441 19.0374 2.47884C18.7171 2.0149 18.0658 1.91288 17.6162 2.2597C17.3995 2.42679 17.2648 2.6685 17.2366 2.94008C17.1644 3.63407 16.9883 4.28431 16.7124 4.88535C15.943 3.80015 14.5721 3.27986 13.2563 3.6257C13.1936 3.38088 13.0902 3.14829 12.9507 2.93758C13.7238 2.82808 14.2905 2.20276 14.369 1.46665C14.3745 1.41536 14.3663 1.36353 14.3454 1.3164C14.3244 1.26927 14.2914 1.2285 14.2497 1.1982C13.8098 0.87887 13.2403 0.796867 12.7317 0.970571L12.9516 0.398546C12.9654 0.362594 12.972 0.324272 12.971 0.285767C12.9701 0.247263 12.9615 0.20933 12.9458 0.174136C12.9302 0.138942 12.9078 0.107175 12.8798 0.08065C12.8519 0.0541248 12.819 0.0333604 12.7831 0.0195429C12.7471 0.00571652 12.7088 -0.000891263 12.6703 9.64316e-05C12.6318 0.00108413 12.5938 0.00964815 12.5587 0.0252995C12.5235 0.0409508 12.4917 0.0633827 12.4652 0.0913138C12.4386 0.119245 12.4179 0.152128 12.4041 0.188085C12.4025 0.192034 11.6916 2.02382 11.6903 2.02777C10.6196 1.73788 9.42862 2.28547 9.01834 3.44578C8.90008 3.78881 8.7037 4.08757 8.44385 4.32419C8.29466 3.37043 7.87843 2.61121 7.27563 2.20335C7.35521 1.83282 7.34376 1.44852 7.24228 1.08339C7.2285 1.03372 7.20188 0.988562 7.1651 0.952458C7.12832 0.916354 7.08267 0.890582 7.03275 0.877736C6.16146 0.653666 5.19123 0.899126 4.54557 1.5815V0.879926C4.54557 0.717915 4.4143 0.58664 4.25229 0.58664C4.09028 0.58664 3.959 0.717915 3.959 0.879926V2.59412C2.74343 1.51147 1.335 1.68396 0.564477 2.90661C-0.473833 4.55429 -0.0249102 7.46282 1.46193 9.02916L1.88156 9.53916L1.02939 9.45634C0.532411 9.40855 0.0963145 9.77188 0.0484894 10.2634C0.000351479 10.7591 0.363674 11.1964 0.855572 11.2443L1.70774 11.3271L1.01348 11.8984C0.629273 12.2145 0.575739 12.7805 0.890571 13.1625C1.20712 13.5472 1.77363 13.599 2.15475 13.2854L3.35554 12.2973C3.593 12.1025 3.86125 11.9486 4.14929 11.842L4.14893 11.8456C4.03796 12.9877 4.93072 14 6.10945 14L17.9487 13.9673C18.4362 13.9674 18.9062 13.7856 19.2667 13.4575C19.6273 13.1293 19.8525 12.6785 19.8983 12.1931C19.9469 11.708 19.8127 11.2222 19.5221 10.8308C19.2315 10.4394 18.8053 10.1704 18.3269 10.0766L17.2898 9.87007C17.6715 9.63819 18.0283 9.36753 18.3544 9.0624C19.2412 8.23232 19.7964 7.10611 19.9178 5.89136ZM16.3954 5.48345C15.6105 6.77469 14.3753 7.69858 12.9794 8.15755C13.1699 7.58373 13.1988 6.95145 13.0306 6.33124C12.9208 5.92545 12.9607 5.47278 13.1429 5.05639C13.259 4.79087 13.3213 4.50493 13.326 4.21517C14.5201 3.8599 15.8045 4.3997 16.3954 5.48345ZM13.752 1.58025C13.5706 2.22853 12.8475 2.55768 12.237 2.25751C12.2409 2.25387 12.6579 1.03666 13.752 1.58025ZM9.57226 3.63896C9.86484 2.80646 10.7637 2.29125 11.7626 2.67253C12.5766 3.03166 12.9671 3.99305 12.6055 4.82149C12.37 5.35953 12.3198 5.95009 12.4644 6.48457C12.6918 7.32341 12.4766 8.1834 11.9609 8.8088L11.1389 8.64511C11.4057 8.43438 11.6108 8.15569 11.7327 7.8383C12.1087 6.86041 11.6214 5.76497 10.6436 5.38913C9.6658 5.01306 8.57035 5.50046 8.19448 6.47816C7.98754 7.01628 8.04588 7.60367 8.31175 8.08208L7.49153 7.91874C7.1573 6.83996 7.5573 5.65047 8.52198 5.00622C9.014 4.67758 9.3774 4.20414 9.57226 3.63896ZM9.28327 8.27553C8.74836 7.95124 8.51561 7.27731 8.74198 6.68862C8.99984 6.01786 9.74357 5.68711 10.4078 5.92686C11.6646 6.38044 11.5046 8.24734 10.165 8.45115L9.28327 8.27553ZM6.7153 1.40983C6.74614 1.58706 6.7496 1.76796 6.72555 1.94623C5.97485 1.73382 5.21677 2.02448 4.61416 2.53456C4.9523 1.72232 5.83353 1.26425 6.7153 1.40983ZM1.06079 3.21937C1.82533 2.00606 3.1265 2.3584 4.01981 3.52071C4.13615 3.67247 4.36734 3.67404 4.48488 3.52071C5.08937 2.73423 5.83951 2.3494 6.49143 2.49174C6.59944 2.51542 6.70396 2.55292 6.80239 2.60331C7.40503 2.91095 7.81978 3.72253 7.90272 4.74066C7.01367 5.49581 6.62341 6.67052 6.85397 7.79173L6.71577 7.7642C5.57489 7.53716 4.48926 8.34663 4.37703 9.50061L4.3766 9.50487C4.11442 9.34468 3.88086 9.14178 3.68558 8.90457L2.69745 7.70366C2.32083 7.24594 1.60744 7.26925 1.26496 7.76455C1.03401 7.34746 0.852952 6.87582 0.735247 6.37536C0.45205 5.17202 0.573784 3.99216 1.06079 3.21937ZM2.98307 11.8443L1.78212 12.8325C1.64858 12.9425 1.45231 12.9217 1.34368 12.7901C1.31763 12.7585 1.29807 12.7221 1.28611 12.6829C1.27415 12.6437 1.27004 12.6026 1.27399 12.5619C1.27795 12.5211 1.2899 12.4816 1.30916 12.4454C1.32843 12.4093 1.35463 12.3773 1.38626 12.3513L2.62729 11.3302C2.67209 11.2934 2.70496 11.2441 2.72173 11.1885C2.7385 11.133 2.73843 11.0737 2.72152 11.0182C2.70461 10.9628 2.67162 10.9135 2.62673 10.8768C2.58183 10.84 2.52705 10.8174 2.46931 10.8118L0.912392 10.6605C0.743459 10.644 0.615547 10.493 0.632402 10.3202C0.648747 10.1522 0.797815 10.0236 0.972691 10.0402L2.52961 10.1915C2.58736 10.1972 2.64549 10.1856 2.69663 10.1582C2.74778 10.1308 2.78961 10.0888 2.81683 10.0376C2.84412 9.98636 2.85561 9.92823 2.84985 9.8705C2.8441 9.81278 2.82135 9.75805 2.78449 9.71326L1.76339 8.47227C1.73733 8.44068 1.71776 8.40426 1.70581 8.36509C1.69386 8.32593 1.68976 8.28479 1.69374 8.24403C1.69772 8.20328 1.70971 8.16371 1.72901 8.1276C1.74832 8.09148 1.77457 8.05954 1.80625 8.03359C1.83782 8.00759 1.87421 7.98807 1.91334 7.97615C1.95247 7.96423 1.99356 7.96014 2.03427 7.96412C2.07498 7.96809 2.1145 7.98006 2.15058 7.99933C2.18666 8.0186 2.21859 8.04479 2.24453 8.07641L3.23279 9.27751C3.52912 9.6377 3.89774 9.93169 4.31482 10.1405L4.21123 11.2062C3.76194 11.3312 3.34364 11.5486 2.98307 11.8443ZM19.3146 12.1364C19.2825 12.4769 19.1245 12.7931 18.8716 13.0232C18.6187 13.2533 18.2891 13.3809 17.9471 13.3808C18.0295 13.3808 16.3931 13.3854 14.3121 13.3911L14.392 12.5695C14.3995 12.4921 14.376 12.4148 14.3266 12.3548C14.2771 12.2947 14.2059 12.2567 14.1285 12.2492C14.0901 12.2455 14.0514 12.2493 14.0146 12.2605C13.9777 12.2717 13.9435 12.2901 13.9137 12.3146C13.884 12.3391 13.8593 12.3692 13.8412 12.4032C13.8231 12.4372 13.8119 12.4744 13.8082 12.5127L13.7226 13.3927L11.8805 13.3978L11.9838 12.3354C11.9913 12.2579 11.9677 12.1807 11.9183 12.1206C11.8689 12.0606 11.7977 12.0226 11.7202 12.0151C11.5596 11.9989 11.4157 12.1174 11.4 12.2786L11.291 13.3994L9.44884 13.4044L9.57554 12.1012C9.58306 12.0238 9.55952 11.9466 9.5101 11.8865C9.46068 11.8265 9.38943 11.7885 9.31201 11.781C9.15098 11.765 9.00743 11.8833 8.99174 12.0445L8.85938 13.406L7.01719 13.411L7.16727 11.8671C7.17479 11.7897 7.15126 11.7125 7.10184 11.6524C7.05242 11.5924 6.98116 11.5544 6.90375 11.5469C6.86541 11.5431 6.82671 11.547 6.78986 11.5582C6.753 11.5694 6.71872 11.5878 6.68898 11.6122C6.65923 11.6367 6.6346 11.6668 6.6165 11.7008C6.5984 11.7348 6.58718 11.7721 6.58348 11.8104L6.42773 13.4126L6.10797 13.4135C5.28004 13.4135 4.65515 12.7023 4.73289 11.9024L4.96087 9.55739C5.03962 8.74702 5.80228 8.18031 6.60119 8.33947L8.10727 8.6394L7.96321 10.1212C7.95569 10.1986 7.97923 10.2758 8.02865 10.3359C8.07807 10.396 8.14932 10.4339 8.22674 10.4415C8.38683 10.4573 8.53125 10.34 8.54701 10.1779L8.6854 8.75453L10.4921 9.11433L10.3714 10.3553C10.3639 10.4327 10.3875 10.51 10.4369 10.57C10.4863 10.6301 10.5576 10.6681 10.635 10.6756C10.7951 10.6914 10.9395 10.5741 10.9552 10.4121L11.0702 9.22945L12.8769 9.58926L12.7797 10.5894C12.7729 10.6665 12.7968 10.743 12.8462 10.8025C12.8956 10.862 12.9665 10.8995 13.0435 10.907C13.1204 10.9145 13.1972 10.8913 13.2571 10.8424C13.317 10.7936 13.3553 10.7231 13.3635 10.6462L13.455 9.70438L15.2617 10.0642L15.1879 10.8235C15.1804 10.9009 15.2039 10.9782 15.2534 11.0382C15.3028 11.0983 15.374 11.1363 15.4515 11.1438C15.6116 11.1596 15.756 11.0423 15.7717 10.8803L15.8398 10.1793L18.2124 10.6518C18.5479 10.7177 18.8468 10.9063 19.0507 11.1809C19.2545 11.4554 19.3486 11.7962 19.3146 12.1364ZM17.9537 8.63412C17.4894 9.0685 16.96 9.42318 16.3815 9.68913L12.5973 8.9355C12.6132 8.9119 12.6288 8.88808 12.644 8.86406C14.4787 8.40974 16.0568 7.25627 16.9807 5.64546L16.9835 5.64073C17.4392 4.84456 17.7202 3.96013 17.8202 3.00065C17.8256 2.94646 17.8421 2.89395 17.8686 2.84638C17.8952 2.79882 17.9312 2.75722 17.9745 2.72414C18.1643 2.57766 18.4293 2.63029 18.5549 2.81229C19.813 4.63257 19.5545 7.13543 17.9537 8.63412Z" fill="#00CA2C"/>
</svg>
